:FULLY-SPECIFIED
:DEGREES
312
root 9.9147 16.5943 -2.80652 965.621 -87.1353 -952.84
lowerback 0.15052 -0.661129 -1.80704
upperback 1.78757 -0.876973 -0.134324
thorax 1.77205 -0.470053 0.862063
lowerneck -18.098 0.607634 -2.16924
upperneck 32.9217 -0.878462 4.46513
head 14.3575 -0.326378 1.97022
rclavicle 2.54444e-014 -3.97569e-016
rhumerus -30.4767 -4.50853 -83.4977
rradius 31.6821
rwrist 24.5148
rhand -19.9507 -10.0943
rfingers 7.12502
rthumb 6.3874 -39.978
lclavicle 2.54444e-014 -3.97569e-016
lhumerus -30.1475 -10.2997 86.4506
lradius 44.5588
lwrist 11.0952
lhand -29.5427 3.92629
lfingers 7.12502
lthumb -2.87579 33.8866
rfemur -47.2556 -3.75876 17.0457
rtibia 62.6121
rfoot -4.45653 5.91347
rtoes -14.0218
lfemur -20.7632 -0.701637 -28.0052
ltibia 31.811
lfoot -17.3904 0.888682
ltoes -6.34701
313
root 9.90685 16.6023 -2.81975 970.387 -87.2616 -957.466
lowerback 0.0934039 -0.846489 -1.96572
upperback 1.74487 -1.123 0.0156704
thorax 1.77372 -0.595851 1.10037
lowerneck -18.1157 0.66332 -2.2348
upperneck 32.891 -0.783624 4.50125
head 14.3431 -0.288493 2.0123
rclavicle 3.18055e-015 9.54166e-015
rhumerus -30.7745 -5.09414 -83.0985
rradius 30.9711
rwrist 24.6255
rhand -19.9569 -10.3191
rfingers 7.12502
rthumb 6.3814 -40.2029
lclavicle 3.18055e-015 9.54166e-015
lhumerus -29.5967 -10.4822 86.2808
lradius 45.9344
lwrist 12.2323
lhand -29.7561 3.60222
lfingers 7.12502
lthumb -3.08193 33.5597
rfemur -47.8299 -3.45914 17.136
rtibia 59.5279
rfoot -4.79031 5.39283
rtoes -14.5288
lfemur -19.559 -0.923268 -27.9954
ltibia 31.064
lfoot -17.7595 1.10596
ltoes -7.04052
314
root 9.89701 16.6158 -2.83593 977.087 -87.4032 -963.986
lowerback -0.0150708 -0.977646 -2.03223
upperback 1.70045 -1.29534 0.0914333
thorax 1.7983 -0.683004 1.21093
lowerneck -18.0906 0.658706 -2.21134
upperneck 32.8189 -0.802115 4.52671
head 14.3061 -0.288809 2.01362
rclavicle 0 -2.38542e-015
rhumerus -31.0984 -5.91939 -82.6906
rradius 30.278
rwrist 24.6817
rhand -19.9378 -10.4788
rfingers 7.12502
rthumb 6.39988 -40.3621
lclavicle 0 -2.38542e-015
lhumerus -29.0499 -10.9227 86.0359
lradius 47.302
lwrist 12.7379
lhand -29.6663 3.56827
lfingers 7.12502
lthumb -2.99522 33.527
rfemur -48.2903 -3.16247 17.1718
rtibia 56.1418
rfoot -4.97278 4.8676
rtoes -14.3446
lfemur -18.3181 -1.06793 -27.9592
ltibia 30.176
lfoot -17.9059 1.25861
ltoes -8.22889
315
root 9.88703 16.6164 -2.85159 983.467 -87.5678 -970.195
lowerback -0.0993424 -1.15236 -2.05216
upperback 1.66208 -1.52773 0.234515
thorax 1.81931 -0.800036 1.36324
lowerneck -18.1738 0.702036 -2.30492
upperneck 32.836 -0.714357 4.55703
head 14.328 -0.257682 2.05887
rclavicle 1.11319e-014 -4.77083e-015
rhumerus -31.3682 -6.67152 -82.2076
rradius 29.5674
rwrist 24.922
rhand -19.9548 -10.4986
rfingers 7.12502
rthumb 6.3835 -40.3824
lclavicle 1.11319e-014 -4.77083e-015
lhumerus -28.5191 -11.1435 85.7801
lradius 48.5624
lwrist 12.9853
lhand -29.6412 3.28028
lfingers 7.12502
lthumb -2.97096 33.2393
rfemur -48.5116 -2.90389 17.3109
rtibia 52.5057
rfoot -5.07487 4.28533
rtoes -14.9094
lfemur -17.0276 -1.24067 -27.8509
ltibia 29.1919
lfoot -18.0314 1.40278
ltoes -8.56316
316
root 9.87414 16.6266 -2.86813 993.17 -87.6792 -979.788
lowerback -0.189931 -1.32432 -2.04085
upperback 1.65177 -1.75585 0.30623
thorax 1.87058 -0.9146 1.42387
lowerneck -18.1494 0.734972 -2.25989
upperneck 32.8131 -0.681614 4.55721
head 14.3106 -0.238225 2.05579
rclavicle 7.15625e-015 6.75868e-015
rhumerus -31.7004 -7.52547 -81.7938
rradius 28.9447
rwrist 25.0932
rhand -19.9421 -10.7728
rfingers 7.12502
rthumb 6.39575 -40.6562
lclavicle 7.15625e-015 6.75868e-015
lhumerus -27.9656 -11.5733 85.4586
lradius 49.7614
lwrist 13.3629
lhand -29.6358 3.20085
lfingers 7.12502
lthumb -2.9657 33.16
rfemur -48.4934 -2.72329 17.3739
rtibia 48.6179
rfoot -4.94456 3.65592
rtoes -15.8237
lfemur -15.6109 -1.5328 -27.7535
ltibia 28.1263
lfoot -18.0863 1.63299
ltoes -9.18496
317
root 9.86085 16.6315 -2.88518 1002.96 -87.5913 -989.513
lowerback -0.167388 -1.52482 -2.19097
upperback 1.63851 -2.02303 0.378136
thorax 1.86328 -1.05069 1.5768
lowerneck -18.2048 0.796939 -2.30205
upperneck 32.8445 -0.582252 4.57323
head 14.3321 -0.198666 2.08814
rclavicle 3.18055e-015 7.95139e-016
rhumerus -32.0198 -8.05287 -81.3931
rradius 28.3249
rwrist 25.1809
rhand -20.016 -10.8804
rfingers 7.12502
rthumb 6.32438 -40.766
lclavicle 3.18055e-015 7.95139e-016
lhumerus -27.4668 -11.8141 85.1277
lradius 50.8923
lwrist 13.46
lhand -29.5989 2.94965
lfingers 7.12502
lthumb -2.93006 32.9093
rfemur -48.2901 -2.61293 17.3029
rtibia 44.5669
rfoot -4.76898 2.7797
rtoes -15.2882
lfemur -14.1344 -1.69807 -27.7947
ltibia 27.0188
lfoot -17.9871 1.82696
ltoes -10.1806
